<svg width="142" height="32" viewBox="0 0 142 32" fill="none" xmlns="http://www.w3.org/2000/svg">
<g clip-path="url(#clip0_225_6)">
<mask id="mask0_225_6" style="mask-type:luminance" maskUnits="userSpaceOnUse" x="0" y="0" width="142" height="32">
<path d="M142 0H0V31.33H142V0Z" fill="white"/>
</mask>
<g mask="url(#mask0_225_6)">
<path d="M17.128 11.9701L18.4851 11.0932C18.7358 11.2774 19.0417 11.3882 19.3753 11.3882C20.2053 11.3882 20.8806 10.7118 20.8806 9.88217C20.8806 9.05252 20.2053 8.37611 19.3753 8.37611C18.5453 8.37611 17.8716 9.05089 17.8716 9.88217C17.8716 9.98977 17.8831 10.0957 17.9042 10.1968L16.682 10.9872H15.6177L15.2012 12.0565H16.9978L17.1296 11.9717L17.128 11.9701ZM19.3753 9.4437C19.6162 9.4437 19.8131 9.63933 19.8131 9.88217C19.8131 10.125 19.6162 10.3206 19.3753 10.3206C19.1345 10.3206 18.9375 10.1234 18.9375 9.88217C18.9375 9.64097 19.1345 9.4437 19.3753 9.4437ZM17.9042 24.002C17.8831 24.1047 17.8716 24.209 17.8716 24.3166C17.8716 25.1479 18.547 25.8227 19.3753 25.8227C20.2036 25.8227 20.8806 25.1479 20.8806 24.3166C20.8806 23.4854 20.2053 22.8106 19.3753 22.8106C19.0417 22.8106 18.7358 22.9214 18.4851 23.1056L17.128 22.2287L16.9961 22.1423H15.6161V23.2115H16.6804L17.9042 24.002ZM19.3753 23.8798C19.6162 23.8798 19.8131 24.0754 19.8131 24.3166C19.8131 24.5578 19.6162 24.7551 19.3753 24.7551C19.1345 24.7551 18.9375 24.5578 18.9375 24.3166C18.9375 24.0754 19.1345 23.8798 19.3753 23.8798ZM28.6008 7.24011C26.9263 5.78132 24.7033 4.97778 22.342 4.97778C19.7545 4.97778 17.2874 5.9818 15.6129 7.68505C13.9399 5.9818 11.4729 4.97778 8.88863 4.97778C6.52734 4.97778 4.30599 5.78132 2.62981 7.24011C0.934104 8.71517 0 10.6874 0 12.7883V12.8665C0 22.9882 14.7699 29.5893 15.3997 29.8665L15.6047 29.9561L15.6177 29.9512L15.6308 29.9561L15.8358 29.8665C16.464 29.591 31.2355 22.9899 31.2355 12.8665V12.7883C31.2355 10.6874 30.3014 8.71681 28.6041 7.23848L28.6008 7.24011ZM30.1663 12.8681C30.1663 21.6501 17.4762 27.9203 15.6292 28.7858L15.6161 28.7793V23.2115H14.5518L13.328 24.002C13.3492 24.1031 13.3623 24.209 13.3623 24.3166C13.3623 25.1479 12.6869 25.8227 11.8586 25.8227C11.0302 25.8227 10.3532 25.1479 10.3532 24.3166C10.3532 23.4854 11.0286 22.8106 11.8586 22.8106C12.1922 22.8106 12.4998 22.9214 12.7487 23.1056L14.1059 22.2287L14.2378 22.1423H15.6177V21.3241L14.7845 20.2972H13.2955L11.7365 21.8587L11.5835 22.0119L11.3671 22.0152L9.91877 22.0347C9.70392 22.6052 9.15552 23.0127 8.51105 23.0127C7.68113 23.0127 7.0074 22.3363 7.0074 21.505C7.0074 20.6738 7.68277 19.999 8.51105 19.999C9.15062 19.999 9.69583 20.4016 9.91387 20.9655L11.136 20.9492L12.8545 19.228H14.7862V20.2744H17.9416L19.6536 21.9908L19.8701 21.994L21.3184 22.0135C21.5332 22.584 22.0816 22.9915 22.726 22.9915C23.556 22.9915 24.2297 22.3151 24.2297 21.4838C24.2297 20.6526 23.5544 19.9762 22.726 19.9762C22.0865 19.9762 21.5413 20.3787 21.3233 20.9427L20.1011 20.9264L18.3826 19.2052H14.7845L15.6177 18.5386L16.0344 17.6437H13.3167C13.1002 18.211 12.5534 18.6152 11.9122 18.6152C11.0823 18.6152 10.407 17.9404 10.407 17.1092C10.407 16.2779 11.0823 15.6015 11.9122 15.6015C12.5534 15.6015 13.1018 16.0073 13.3167 16.5746H15.6177L16.0344 17.6193H17.9188C18.1352 18.1882 18.6821 18.5924 19.3232 18.5924C20.1532 18.5924 20.8286 17.916 20.8286 17.0847C20.8286 16.2534 20.1532 15.5787 19.3232 15.5787C18.6821 15.5787 18.1337 15.9845 17.9188 16.5501H15.6177L16.0344 15.8411V14.9887H12.8528L12.6966 14.8322L11.1344 13.2675L9.91224 13.2512C9.6942 13.8151 9.14899 14.2177 8.50942 14.2177C7.6795 14.2177 7.00578 13.5429 7.00578 12.7117C7.00578 11.8804 7.68113 11.2056 8.50942 11.2056C9.15389 11.2056 9.70229 11.6131 9.91714 12.1836L11.3655 12.2032L11.5819 12.2064L11.7349 12.3596L13.2939 13.9211H15.6161L16.0327 14.9675H18.381L20.0995 13.2463L21.3217 13.23C21.5397 13.7939 22.0849 14.1966 22.7244 14.1966C23.1264 14.1966 23.5039 14.04 23.7887 13.7548C24.0735 13.4696 24.2297 13.0914 24.2297 12.6889C24.2297 11.8576 23.5544 11.1812 22.726 11.1812C22.0816 11.1812 21.5332 11.5887 21.3184 12.1592L19.8701 12.1787L19.6536 12.182L19.5006 12.3352L17.9416 13.8966H15.6194L16.464 12.9708L15.2028 12.0532H14.2394L14.1076 11.9684L12.7503 11.0916C12.5014 11.2757 12.1938 11.3866 11.8602 11.3866C11.0302 11.3866 10.3549 10.7102 10.3549 9.88054C10.3549 9.05089 11.0302 8.37448 11.8602 8.37448C12.6901 8.37448 13.3638 9.04925 13.3638 9.88054C13.3638 9.98813 13.3525 10.0941 13.3313 10.1951L14.5534 10.9856H15.6177L16.8675 9.29537L16.023 8.81622C17.4876 7.08036 19.8505 6.04374 22.3453 6.04374C24.4478 6.04374 26.4218 6.75438 27.9043 8.04367C29.364 9.31499 30.1696 10.9986 30.1696 12.7866V12.8649L30.1663 12.8681ZM22.2867 21.4854C22.2867 21.2442 22.4836 21.047 22.7244 21.047C22.9653 21.047 23.1622 21.2442 23.1622 21.4854C23.1622 21.7267 22.9669 21.9239 22.7244 21.9239C22.4819 21.9239 22.2867 21.7267 22.2867 21.4854ZM18.8855 17.088C18.8855 16.8467 19.0824 16.6512 19.3232 16.6512C19.5641 16.6512 19.761 16.8484 19.761 17.088C19.761 17.3276 19.5641 17.5264 19.3232 17.5264C19.0824 17.5264 18.8855 17.3292 18.8855 17.088ZM22.2867 12.6921C22.2867 12.4509 22.4836 12.2537 22.7244 12.2537C22.9653 12.2537 23.1622 12.4509 23.1622 12.6921C23.1622 12.8095 23.1166 12.9187 23.0336 13.0018C22.9506 13.0849 22.8416 13.1306 22.7244 13.1306C22.4836 13.1306 22.2867 12.935 22.2867 12.6921ZM11.8586 9.4437C11.6177 9.4437 11.4208 9.63933 11.4208 9.88217C11.4208 10.125 11.6177 10.3206 11.8586 10.3206C12.0994 10.3206 12.2963 10.1234 12.2963 9.88217C12.2963 9.64097 12.0994 9.4437 11.8586 9.4437ZM11.8586 23.8798C11.6177 23.8798 11.4208 24.0754 11.4208 24.3166C11.4208 24.5578 11.6177 24.7551 11.8586 24.7551C12.0994 24.7551 12.2963 24.5578 12.2963 24.3166C12.2963 24.0754 12.0994 23.8798 11.8586 23.8798ZM8.50942 21.0698C8.26859 21.0698 8.07171 21.2671 8.07171 21.5066C8.07171 21.7462 8.26696 21.9451 8.50942 21.9451C8.75196 21.9451 8.94721 21.7478 8.94721 21.5066C8.94721 21.2654 8.75032 21.0698 8.50942 21.0698ZM11.9106 16.6724C11.6698 16.6724 11.4729 16.8696 11.4729 17.1108C11.4729 17.352 11.6698 17.5476 11.9106 17.5476C12.1515 17.5476 12.3484 17.352 12.3484 17.1108C12.3484 16.8696 12.1515 16.6724 11.9106 16.6724ZM8.50942 12.2748C8.26859 12.2748 8.07171 12.4721 8.07171 12.7133C8.07171 12.9545 8.26696 13.1517 8.50942 13.1517C8.75196 13.1517 8.94721 12.9562 8.94721 12.7133C8.94721 12.4705 8.75032 12.2748 8.50942 12.2748Z" fill="#1C4D84"/>
<path d="M44.3682 6.58313C39.8132 6.58313 36.1094 10.2944 36.1094 14.8549C36.1094 19.4153 39.8149 23.1266 44.3682 23.1266C48.9215 23.1266 52.627 19.4153 52.627 14.8549C52.627 10.2944 48.9215 6.58313 44.3682 6.58313ZM44.3682 19.8685C41.6083 19.8685 39.3641 17.6192 39.3641 14.8566C39.3641 12.0938 41.6098 9.84457 44.3682 9.84457C47.1266 9.84457 49.3723 12.0938 49.3723 14.8566C49.3723 17.6192 47.1266 19.8685 44.3682 19.8685Z" fill="#86929C"/>
<path d="M44.3682 6.58313C39.8132 6.58313 36.1094 10.2944 36.1094 14.8549C36.1094 19.4153 39.8149 23.1266 44.3682 23.1266C48.9215 23.1266 52.627 19.4153 52.627 14.8549C52.627 10.2944 48.9215 6.58313 44.3682 6.58313ZM44.3682 19.8685C41.6083 19.8685 39.3641 17.6192 39.3641 14.8566C39.3641 12.0938 41.6098 9.84457 44.3682 9.84457C47.1266 9.84457 49.3723 12.0938 49.3723 14.8566C49.3723 17.6192 47.1266 19.8685 44.3682 19.8685Z" fill="black" fill-opacity="0.2"/>
<path d="M90.1296 4.91216C91.4765 4.69322 92.3909 3.42231 92.1723 2.0735C91.9536 0.724691 90.6848 -0.191242 89.3379 0.0277004C87.9918 0.246643 87.0773 1.51755 87.296 2.86636C87.514 4.21517 88.7834 5.1311 90.1296 4.91216Z" fill="#86929C"/>
<path d="M90.1296 4.91216C91.4765 4.69322 92.3909 3.42231 92.1723 2.0735C91.9536 0.724691 90.6848 -0.191242 89.3379 0.0277004C87.9918 0.246643 87.0773 1.51755 87.296 2.86636C87.514 4.21517 88.7834 5.1311 90.1296 4.91216Z" fill="black" fill-opacity="0.2"/>
<path d="M62.5264 6.58313C57.9714 6.58313 54.2676 10.2944 54.2676 14.8549V29.6984C54.2676 30.5981 54.9966 31.3284 55.895 31.3284C56.7933 31.3284 57.5223 30.5981 57.5223 29.6984V14.8566C57.5223 12.0922 59.768 9.84457 62.5264 9.84457C65.2848 9.84457 67.5305 12.0938 67.5305 14.8566C67.5305 17.6192 65.2848 19.8685 62.5264 19.8685C61.6281 19.8685 60.8991 20.5987 60.8991 21.4984C60.8991 22.3981 61.6281 23.1283 62.5264 23.1283C67.0814 23.1283 70.7852 19.417 70.7852 14.8566C70.7852 10.2961 67.0797 6.58476 62.5264 6.58476V6.58313Z" fill="#86929C"/>
<path d="M62.5264 6.58313C57.9714 6.58313 54.2676 10.2944 54.2676 14.8549V29.6984C54.2676 30.5981 54.9966 31.3284 55.895 31.3284C56.7933 31.3284 57.5223 30.5981 57.5223 29.6984V14.8566C57.5223 12.0922 59.768 9.84457 62.5264 9.84457C65.2848 9.84457 67.5305 12.0938 67.5305 14.8566C67.5305 17.6192 65.2848 19.8685 62.5264 19.8685C61.6281 19.8685 60.8991 20.5987 60.8991 21.4984C60.8991 22.3981 61.6281 23.1283 62.5264 23.1283C67.0814 23.1283 70.7852 19.417 70.7852 14.8566C70.7852 10.2961 67.0797 6.58476 62.5264 6.58476V6.58313Z" fill="black" fill-opacity="0.2"/>
<path d="M133.741 6.58313C129.187 6.58313 125.483 10.2944 125.483 14.8549C125.483 19.4153 129.188 23.1266 133.741 23.1266C134.64 23.1266 135.369 22.3965 135.369 21.4968C135.369 20.5971 134.64 19.8668 133.741 19.8668C130.982 19.8668 128.737 17.6176 128.737 14.8549C128.737 12.0922 130.983 9.84293 133.741 9.84293C136.5 9.84293 138.745 12.0922 138.745 14.8549V21.4968C138.745 22.3965 139.475 23.1266 140.373 23.1266C141.271 23.1266 142 22.3965 142 21.4968V14.8549C142 10.2928 138.295 6.58313 133.741 6.58313Z" fill="#86929C"/>
<path d="M133.741 6.58313C129.187 6.58313 125.483 10.2944 125.483 14.8549C125.483 19.4153 129.188 23.1266 133.741 23.1266C134.64 23.1266 135.369 22.3965 135.369 21.4968C135.369 20.5971 134.64 19.8668 133.741 19.8668C130.982 19.8668 128.737 17.6176 128.737 14.8549C128.737 12.0922 130.983 9.84293 133.741 9.84293C136.5 9.84293 138.745 12.0922 138.745 14.8549V21.4968C138.745 22.3965 139.475 23.1266 140.373 23.1266C141.271 23.1266 142 22.3965 142 21.4968V14.8549C142 10.2928 138.295 6.58313 133.741 6.58313Z" fill="black" fill-opacity="0.2"/>
<path d="M115.669 6.58313C112.955 6.58313 110.543 7.90174 109.038 9.93097C107.531 7.90011 105.119 6.58313 102.406 6.58313C97.8515 6.58313 94.1475 10.2944 94.1475 14.8549V21.4968C94.1475 22.3965 94.8766 23.1266 95.7748 23.1266C96.6729 23.1266 97.4021 22.3965 97.4021 21.4968V14.8549C97.4021 12.0905 99.6478 9.84293 102.406 9.84293C105.165 9.84293 107.41 12.0922 107.41 14.8549V21.4968C107.41 22.3965 108.139 23.1266 109.038 23.1266C109.936 23.1266 110.665 22.3965 110.665 21.4968V14.8549C110.665 12.0905 112.911 9.84293 115.669 9.84293C118.427 9.84293 120.674 12.0922 120.674 14.8549V21.4968C120.674 22.3965 121.402 23.1266 122.301 23.1266C123.199 23.1266 123.928 22.3965 123.928 21.4968V14.8549C123.928 10.2928 120.223 6.58313 115.669 6.58313Z" fill="#86929C"/>
<path d="M115.669 6.58313C112.955 6.58313 110.543 7.90174 109.038 9.93097C107.531 7.90011 105.119 6.58313 102.406 6.58313C97.8515 6.58313 94.1475 10.2944 94.1475 14.8549V21.4968C94.1475 22.3965 94.8766 23.1266 95.7748 23.1266C96.6729 23.1266 97.4021 22.3965 97.4021 21.4968V14.8549C97.4021 12.0905 99.6478 9.84293 102.406 9.84293C105.165 9.84293 107.41 12.0922 107.41 14.8549V21.4968C107.41 22.3965 108.139 23.1266 109.038 23.1266C109.936 23.1266 110.665 22.3965 110.665 21.4968V14.8549C110.665 12.0905 112.911 9.84293 115.669 9.84293C118.427 9.84293 120.674 12.0922 120.674 14.8549V21.4968C120.674 22.3965 121.402 23.1266 122.301 23.1266C123.199 23.1266 123.928 22.3965 123.928 21.4968V14.8549C123.928 10.2928 120.223 6.58313 115.669 6.58313Z" fill="black" fill-opacity="0.2"/>
<path d="M80.683 10.2162C81.5812 10.2162 82.3103 9.48606 82.3103 8.58636C82.3103 7.68659 81.5812 6.95642 80.683 6.95642H72.4236V14.8566C72.4236 19.4186 76.1291 23.1284 80.683 23.1284C81.5812 23.1284 82.3103 22.3981 82.3103 21.4984C82.3103 20.5987 81.5812 19.8685 80.683 19.8685C77.9225 19.8685 75.6782 17.6192 75.6782 14.8566V10.2162H80.683Z" fill="#86929C"/>
<path d="M80.683 10.2162C81.5812 10.2162 82.3103 9.48606 82.3103 8.58636C82.3103 7.68659 81.5812 6.95642 80.683 6.95642H72.4236V14.8566C72.4236 19.4186 76.1291 23.1284 80.683 23.1284C81.5812 23.1284 82.3103 22.3981 82.3103 21.4984C82.3103 20.5987 81.5812 19.8685 80.683 19.8685C77.9225 19.8685 75.6782 17.6192 75.6782 14.8566V10.2162H80.683Z" fill="black" fill-opacity="0.2"/>
<path d="M84.7612 8.58636C84.7612 9.48606 85.4904 10.2162 86.3886 10.2162H88.1067V21.4984C88.1067 22.3981 88.8359 23.1284 89.7341 23.1284C90.6329 23.1284 91.3614 22.3981 91.3614 21.4984V6.95642H86.3886C85.4904 6.95642 84.7612 7.68659 84.7612 8.58636Z" fill="#86929C"/>
<path d="M84.7612 8.58636C84.7612 9.48606 85.4904 10.2162 86.3886 10.2162H88.1067V21.4984C88.1067 22.3981 88.8359 23.1284 89.7341 23.1284C90.6329 23.1284 91.3614 22.3981 91.3614 21.4984V6.95642H86.3886C85.4904 6.95642 84.7612 7.68659 84.7612 8.58636Z" fill="black" fill-opacity="0.2"/>
</g>
</g>
<defs>
<clipPath id="clip0_225_6">
<rect width="142" height="32" fill="white"/>
</clipPath>
</defs>
</svg>
